<?xml version="1.0" encoding="UTF-8"?>
<svg id="Layer_1" xmlns="http://www.w3.org/2000/svg" viewBox="0 0 584.72 405.74">
  <defs>
    <style>
      .cls-1, .cls-2 {
        fill: #fff;
      }

      .cls-2 {
        fill-rule: evenodd;
      }
    </style>
  </defs>
  <g id="Layer_x5F_1">
    <path class="cls-1" d="M422.25,114.99v-6.2h-6.89v6.2h-6.2v6.89h6.2v6.2h6.89v-6.2h6.2v-6.89h-6.2ZM456.77,90.88h-19.98v48.23h8.27v-15.85h11.71c6.24,0,14.47-5.55,14.47-16.19s-7.75-16.19-14.47-16.19ZM456.77,116.37h-11.71v-18.6h11.71c3.42,0,6.2,4.17,6.2,9.3s-2.78,9.3-6.2,9.3ZM486.4,132.22v-41.34h-8.27v48.23h26.18v-6.89h-17.92ZM533.53,90.88v34.45c0,3.8-3.7,6.89-8.27,6.89s-8.27-3.09-8.27-6.89v-34.45h-8.27v34.45c0,6.79,6.03,14.47,16.54,14.47,9.54,0,16.54-6.79,16.54-14.47v-34.45h-8.27ZM557.17,104.52c0-1.24-.67-6.06,8.48-6.06,4.92,0,9.58,2.17,12.71,5.95l6.36-5.29c-4.72-5.66-11.7-8.93-19.07-8.92-13.71,0-16.76,9.23-16.76,14.33,0,15.47,27.55,12.02,27.55,21.19,0,.96.67,5.82-8.48,5.82-4.92,0-9.58-2.17-12.71-5.95l-6.36,5.29c4.72,5.66,11.7,8.93,19.07,8.92,13.71,0,16.76-10.23,16.76-14.09,0-14.88-27.55-13.47-27.55-21.19h0Z"/>
    <path class="cls-1" d="M441.27,73.3v-22.37h-4.47v26.1h14.17v-3.73h-9.69ZM465.14,50.93h-4.85l-8.39,26.1h4.85l5.97-18.56,5.97,18.56h4.85l-8.39-26.1h0ZM489.3,50.93v18.64c0,2.06-2,3.73-4.47,3.73s-4.47-1.67-4.47-3.73v-18.64h-4.47v18.64c0,3.67,3.26,7.83,8.95,7.83,5.16,0,8.95-3.67,8.95-7.83v-18.64h-4.47ZM512.9,50.93v17.75l-9.51-17.75h-4.66v26.1h4.47v-17.75l9.51,17.75h4.66v-26.1h-4.47ZM529.68,50.93h-7.09v26.1h7.09c5.78,0,13.05-4.53,13.05-13.05s-7.61-13.05-13.05-13.05ZM528.93,73.3h-1.86v-18.64h1.86c5.15,0,9.32,4.18,9.32,9.32s-4.18,9.32-9.32,9.32ZM562.49,66.49c.55-.51,2.88-2.9,2.88-6.79,0-5.35-3.97-8.76-7.83-8.76h-10.81v26.1h4.47v-8.58h6.34c.25,0,.51-.01.76-.04l2.96,8.62h4.85l-3.62-10.55h0ZM557.53,64.73h-6.34v-10.07h6.34c1.85,0,3.36,2.26,3.36,5.03s-1.5,5.03-3.36,5.03h0ZM580.24,50.93l-4.47,8.95-4.47-8.95h-4.47l6.71,13.42v12.68h4.47v-12.68l6.71-13.42h-4.47Z"/>
    <g id="_1717639509936">
      <path class="cls-1" d="M308.49,115.92c30.41,0,57.94,12.33,77.87,32.26,19.93,19.93,32.26,47.46,32.26,77.87s-12.33,57.94-32.26,77.87c-19.93,19.93-47.46,32.26-77.87,32.26s-57.94-12.33-77.87-32.26c-19.93-19.93-32.26-47.46-32.26-77.87s12.33-57.94,32.26-77.87c19.93-19.93,47.46-32.26,77.87-32.26ZM369.97,164.57c-15.73-15.73-37.47-25.46-61.48-25.46s-45.75,9.73-61.48,25.46c-15.73,15.73-25.46,37.47-25.46,61.48s9.73,45.75,25.46,61.48c15.73,15.73,37.47,25.46,61.48,25.46s45.75-9.73,61.48-25.46,25.46-37.47,25.46-61.48-9.73-45.75-25.46-61.48Z"/>
      <path class="cls-1" d="M308.49,168.09c16.01,0,30.5,6.49,40.99,16.98s16.98,24.98,16.98,40.99-6.49,30.5-16.98,40.99c-10.49,10.49-24.98,16.98-40.99,16.98s-30.5-6.49-40.99-16.98c-10.49-10.49-16.98-24.98-16.98-40.99s6.49-30.5,16.98-40.99c10.49-10.49,24.98-16.98,40.99-16.98ZM333.08,201.46c-6.29-6.29-14.99-10.19-24.59-10.19s-18.3,3.89-24.59,10.19c-6.29,6.29-10.18,14.99-10.18,24.59s3.89,18.3,10.18,24.59c6.29,6.29,14.99,10.19,24.59,10.19s18.3-3.89,24.59-10.19c6.29-6.29,10.19-14.99,10.19-24.59s-3.89-18.3-10.19-24.59Z"/>
      <path class="cls-1" d="M136.24,119.04c19.92,4.84,37.73,15.1,51.76,29.14,19.93,19.93,32.26,47.46,32.26,77.87s-12.33,57.94-32.26,77.87c-19.93,19.93-47.46,32.26-77.87,32.26s-57.94-12.33-77.87-32.26C12.33,284,0,256.46,0,226.05h23.18c0,24.01,9.73,45.75,25.46,61.48,15.73,15.73,37.47,25.46,61.48,25.46s45.75-9.73,61.48-25.46c15.73-15.73,25.46-37.47,25.46-61.48s-9.73-45.75-25.46-61.48c-12.63-12.63-29.14-21.4-47.59-24.36l12.22-21.17h0Z"/>
      <path class="cls-1" d="M112.25,168.13c15.16.55,28.84,6.92,38.86,16.94,10.49,10.49,16.98,24.98,16.98,40.99s-6.49,30.5-16.98,40.99c-10.49,10.49-24.98,16.98-40.99,16.98s-30.5-6.49-40.99-16.98c-10.49-10.49-16.98-24.98-16.98-40.99h23.18c0,9.6,3.89,18.3,10.18,24.59,6.29,6.29,14.99,10.19,24.59,10.19s18.3-3.89,24.59-10.19c6.29-6.29,10.18-14.99,10.18-24.59s-3.89-18.3-10.18-24.59c-5.83-5.83-13.71-9.59-22.47-10.12v-23.21h0Z"/>
      <polygon class="cls-2" points="502.6 168.09 529.37 168.09 392.17 405.74 365.4 405.74 502.6 168.09"/>
      <polygon class="cls-2" points="554.61 168.09 581.38 168.09 444.18 405.74 417.41 405.74 554.61 168.09"/>
      <rect class="cls-1" x="393.02" y="168.09" width="115.92" height="23.18"/>
      <polygon class="cls-2" points="312.1 0 338.87 0 241.12 169.32 214.35 169.32 312.1 0"/>
      <polygon class="cls-2" points="365.65 0 392.42 0 316.19 132.03 289.42 132.03 365.65 0"/>
      <polygon class="cls-2" points="158.84 69.55 239.2 69.55 225.81 92.74 145.45 92.74 158.84 69.55"/>
      <polygon class="cls-2" points="155.3 75.69 182.07 75.69 115.23 191.46 88.45 191.46 155.3 75.69"/>
    </g>
  </g>
</svg>